HIERARCHY
ROOT Root
{
  OFFSET 0.0 0.0 0.0
  CHANNELS 6 Xposition Yposition Zposition Zrotation Yrotation Xrotation
  JOINT Hips
  {
    OFFSET 0.0 100.0 0.0
    CHANNELS 6 Xposition Yposition Zposition Zrotation Yrotation Xrotation
    JOINT Spine1
    {
      OFFSET 5.003913 -0.037094 -0.013727
      CHANNELS 3 Zrotation Yrotation Xrotation
      JOINT Spine2
      {
        OFFSET 7.125363 -1e-06 0.0
        CHANNELS 3 Zrotation Yrotation Xrotation
        JOINT Chest
        {
          OFFSET 7.594027 1e-06 0.0
          CHANNELS 3 Zrotation Yrotation Xrotation
          JOINT Neck1
          {
            OFFSET 26.313086 -0.460272 -0.181672
            CHANNELS 3 Zrotation Yrotation Xrotation
            JOINT Neck2
            {
              OFFSET 8.045911 0.0 0.0
              CHANNELS 3 Zrotation Yrotation Xrotation
              JOINT Head
              {
                OFFSET 6.432774 0.0 0.0
                CHANNELS 3 Zrotation Yrotation Xrotation
                JOINT HeadEnd
                {
                  OFFSET 16.169773 0.06451 0.00362
                  CHANNELS 3 Zrotation Yrotation Xrotation
                }
                JOINT Jaw
                {
                  OFFSET 0.108741 3.12938 0.002639
                  CHANNELS 3 Zrotation Yrotation Xrotation
                }
                JOINT LeftEye
                {
                  OFFSET 4.45173 8.166359 3.206392
                  CHANNELS 3 Zrotation Yrotation Xrotation
                }
                JOINT RightEye
                {
                  OFFSET 4.436895 8.135758 -3.222429
                  CHANNELS 3 Zrotation Yrotation Xrotation
                }
              }
            }
          }
          JOINT LeftShoulder
          {
            OFFSET 23.218927 5.195579 1.621656
            CHANNELS 3 Zrotation Yrotation Xrotation
            JOINT LeftArm
            {
              OFFSET 15.902118 2e-06 -2e-06
              CHANNELS 3 Zrotation Yrotation Xrotation
              JOINT LeftForeArm
              {
                OFFSET 28.739307 0.0 -1e-06
                CHANNELS 3 Zrotation Yrotation Xrotation
                JOINT LeftHand
                {
                  OFFSET 27.093981 -4e-06 0.0
                  CHANNELS 3 Zrotation Yrotation Xrotation
                  JOINT LeftHandThumb1
                  {
                    OFFSET 2.276781 3.380274 0.83384
                    CHANNELS 3 Zrotation Yrotation Xrotation
                    JOINT LeftHandThumb2
                    {
                      OFFSET 4.705309 -1e-06 -1e-06
                      CHANNELS 3 Zrotation Yrotation Xrotation
                      JOINT LeftHandThumb3
                      {
                        OFFSET 2.798515 0.0 3e-06
                        CHANNELS 3 Zrotation Yrotation Xrotation
                        JOINT LeftHandThumbEnd
                        {
                          OFFSET 3.180793 4e-06 -4e-06
                          CHANNELS 3 Zrotation Yrotation Xrotation
                        }
                      }
                    }
                  }
                  JOINT LeftHandIndex1
                  {
                    OFFSET 3.247786 2.352677 0.137192
                    CHANNELS 3 Zrotation Yrotation Xrotation
                    JOINT LeftHandIndex2
                    {
                      OFFSET 6.367095 1e-06 0.0
                      CHANNELS 3 Zrotation Yrotation Xrotation
                      JOINT LeftHandIndex3
                      {
                        OFFSET 3.662364 0.0 0.0
                        CHANNELS 3 Zrotation Yrotation Xrotation
                        JOINT LeftHandIndex4
                        {
                          OFFSET 2.329242 4e-06 -4e-06
                          CHANNELS 3 Zrotation Yrotation Xrotation
                          JOINT LeftHandIndexEnd
                          {
                            OFFSET 2.767823 1e-06 0.0
                            CHANNELS 3 Zrotation Yrotation Xrotation
                          }
                        }
                      }
                    }
                  }
                  JOINT LeftHandMiddle1
                  {
                    OFFSET 3.163612 0.945023 -0.406112
                    CHANNELS 3 Zrotation Yrotation Xrotation
                    JOINT LeftHandMiddle2
                    {
                      OFFSET 6.276789 3e-06 0.0
                      CHANNELS 3 Zrotation Yrotation Xrotation
                      JOINT LeftHandMiddle3
                      {
                        OFFSET 4.35652 -1e-06 4e-06
                        CHANNELS 3 Zrotation Yrotation Xrotation
                        JOINT LeftHandMiddle4
                        {
                          OFFSET 2.996877 0.0 8e-06
                          CHANNELS 3 Zrotation Yrotation Xrotation
                          JOINT LeftHandMiddleEnd
                          {
                            OFFSET 2.323256 3e-06 -4e-06
                            CHANNELS 3 Zrotation Yrotation Xrotation
                          }
                        }
                      }
                    }
                  }
                  JOINT LeftHandRing1
                  {
                    OFFSET 2.882606 -0.309162 0.107445
                    CHANNELS 3 Zrotation Yrotation Xrotation
                    JOINT LeftHandRing2
                    {
                      OFFSET 6.033198 0.0 4e-06
                      CHANNELS 3 Zrotation Yrotation Xrotation
                      JOINT LeftHandRing3
                      {
                        OFFSET 4.350578 3e-06 0.0
                        CHANNELS 3 Zrotation Yrotation Xrotation
                        JOINT LeftHandRing4
                        {
                          OFFSET 2.651321 2e-06 -7e-06
                          CHANNELS 3 Zrotation Yrotation Xrotation
                          JOINT LeftHandRingEnd
                          {
                            OFFSET 1.937663 1e-06 -4e-06
                            CHANNELS 3 Zrotation Yrotation Xrotation
                          }
                        }
                      }
                    }
                  }
                  JOINT LeftHandPinky1
                  {
                    OFFSET 2.865315 -1.525436 0.575687
                    CHANNELS 3 Zrotation Yrotation Xrotation
                    JOINT LeftHandPinky2
                    {
                      OFFSET 5.54936 1e-06 -8e-06
                      CHANNELS 3 Zrotation Yrotation Xrotation
                      JOINT LeftHandPinky3
                      {
                        OFFSET 3.070974 0.0 -4e-06
                        CHANNELS 3 Zrotation Yrotation Xrotation
                        JOINT LeftHandPinky4
                        {
                          OFFSET 1.549672 1e-06 0.0
                          CHANNELS 3 Zrotation Yrotation Xrotation
                          JOINT LeftHandPinkyEnd
                          {
                            OFFSET 1.952123 0.0 0.0
                            CHANNELS 3 Zrotation Yrotation Xrotation
                          }
                        }
                      }
                    }
                  }
                }
              }
            }
          }
          JOINT RightShoulder
          {
            OFFSET 23.161716 5.296122 -1.380114
            CHANNELS 3 Zrotation Yrotation Xrotation
            JOINT RightArm
            {
              OFFSET -16.027195 -2e-06 1.1e-05
              CHANNELS 3 Zrotation Yrotation Xrotation
              JOINT RightForeArm
              {
                OFFSET -28.736639 4e-06 2e-06
                CHANNELS 3 Zrotation Yrotation Xrotation
                JOINT RightHand
                {
                  OFFSET -27.133619 6e-06 0.0
                  CHANNELS 3 Zrotation Yrotation Xrotation
                  JOINT RightHandThumb1
                  {
                    OFFSET -2.274328 -3.351035 -0.83067
                    CHANNELS 3 Zrotation Yrotation Xrotation
                    JOINT RightHandThumb2
                    {
                      OFFSET -4.703594 -3e-06 2e-06
                      CHANNELS 3 Zrotation Yrotation Xrotation
                      JOINT RightHandThumb3
                      {
                        OFFSET -2.794935 -4e-06 -3e-06
                        CHANNELS 3 Zrotation Yrotation Xrotation
                        JOINT RightHandThumbEnd
                        {
                          OFFSET -3.183852 4e-06 1e-06
                          CHANNELS 3 Zrotation Yrotation Xrotation
                        }
                      }
                    }
                  }
                  JOINT RightHandIndex1
                  {
                    OFFSET -3.253496 -2.33755 -0.127667
                    CHANNELS 3 Zrotation Yrotation Xrotation
                    JOINT RightHandIndex2
                    {
                      OFFSET -6.344434 0.0 0.0
                      CHANNELS 3 Zrotation Yrotation Xrotation
                      JOINT RightHandIndex3
                      {
                        OFFSET -3.654871 0.0 -8e-06
                        CHANNELS 3 Zrotation Yrotation Xrotation
                        JOINT RightHandIndex4
                        {
                          OFFSET -2.327586 -1e-06 0.0
                          CHANNELS 3 Zrotation Yrotation Xrotation
                          JOINT RightHandIndexEnd
                          {
                            OFFSET -2.770001 3e-06 8e-06
                            CHANNELS 3 Zrotation Yrotation Xrotation
                          }
                        }
                      }
                    }
                  }
                  JOINT RightHandMiddle1
                  {
                    OFFSET -3.168223 -0.944764 0.411762
                    CHANNELS 3 Zrotation Yrotation Xrotation
                    JOINT RightHandMiddle2
                    {
                      OFFSET -6.266691 -1e-06 -4e-06
                      CHANNELS 3 Zrotation Yrotation Xrotation
                      JOINT RightHandMiddle3
                      {
                        OFFSET -4.348901 0.0 0.0
                        CHANNELS 3 Zrotation Yrotation Xrotation
                        JOINT RightHandMiddle4
                        {
                          OFFSET -3.00024 2e-06 -4e-06
                          CHANNELS 3 Zrotation Yrotation Xrotation
                          JOINT RightHandMiddleEnd
                          {
                            OFFSET -2.321477 -4e-06 -4e-06
                            CHANNELS 3 Zrotation Yrotation Xrotation
                          }
                        }
                      }
                    }
                  }
                  JOINT RightHandRing1
                  {
                    OFFSET -2.885654 0.293261 -0.119232
                    CHANNELS 3 Zrotation Yrotation Xrotation
                    JOINT RightHandRing2
                    {
                      OFFSET -6.032835 -1e-06 -4e-06
                      CHANNELS 3 Zrotation Yrotation Xrotation
                      JOINT RightHandRing3
                      {
                        OFFSET -4.33881 0.0 -4e-06
                        CHANNELS 3 Zrotation Yrotation Xrotation
                        JOINT RightHandRing4
                        {
                          OFFSET -2.654903 -4e-06 -4e-06
                          CHANNELS 3 Zrotation Yrotation Xrotation
                          JOINT RightHandRingEnd
                          {
                            OFFSET -1.935122 0.0 4e-06
                            CHANNELS 3 Zrotation Yrotation Xrotation
                          }
                        }
                      }
                    }
                  }
                  JOINT RightHandPinky1
                  {
                    OFFSET -2.866241 1.503904 -0.60527
                    CHANNELS 3 Zrotation Yrotation Xrotation
                    JOINT RightHandPinky2
                    {
                      OFFSET -5.553177 -2e-06 0.0
                      CHANNELS 3 Zrotation Yrotation Xrotation
                      JOINT RightHandPinky3
                      {
                        OFFSET -3.062664 -1e-06 -4e-06
                        CHANNELS 3 Zrotation Yrotation Xrotation
                        JOINT RightHandPinky4
                        {
                          OFFSET -1.546529 2e-06 4e-06
                          CHANNELS 3 Zrotation Yrotation Xrotation
                          JOINT RightHandPinkyEnd
                          {
                            OFFSET -1.952341 0.0 -4e-06
                            CHANNELS 3 Zrotation Yrotation Xrotation
                          }
                        }
                      }
                    }
                  }
                }
              }
            }
          }
        }
      }
    }
    JOINT LeftLeg
    {
      OFFSET -8.443107 2.567604 10.043214
      CHANNELS 3 Zrotation Yrotation Xrotation
      JOINT LeftShin
      {
        OFFSET 43.229198 1e-06 -1e-06
        CHANNELS 3 Zrotation Yrotation Xrotation
        JOINT LeftFoot
        {
          OFFSET 42.298611 1e-06 1e-06
          CHANNELS 3 Zrotation Yrotation Xrotation
          JOINT LeftToeBase
          {
            OFFSET 14.165858 1e-06 0.0
            CHANNELS 3 Zrotation Yrotation Xrotation
            JOINT LeftToeEnd
            {
              OFFSET 6.7141 -0.234461 0.0
              CHANNELS 3 Zrotation Yrotation Xrotation
            }
          }
        }
      }
    }
    JOINT RightLeg
    {
      OFFSET -8.303923 2.592729 -10.047278
      CHANNELS 3 Zrotation Yrotation Xrotation
      JOINT RightShin
      {
        OFFSET -43.369682 0.0 1e-06
        CHANNELS 3 Zrotation Yrotation Xrotation
        JOINT RightFoot
        {
          OFFSET -42.260784 4e-06 2e-06
          CHANNELS 3 Zrotation Yrotation Xrotation
          JOINT RightToeBase
          {
            OFFSET -14.222245 -2e-06 -1e-06
            CHANNELS 3 Zrotation Yrotation Xrotation
            JOINT RightToeEnd
            {
              OFFSET -6.660062 0.232574 -2e-06
              CHANNELS 3 Zrotation Yrotation Xrotation
            }
          }
        }
      }
    }
  }
}
MOTION
Frames: 4
Frame Time: 0.03333333333333333
0.0 0.0 0.0 0.0 -0.0 0.0 -11.780414 96.221458 263.023621 88.998375 5.46735 85.45076 10.441031 3.417254 1.341357 -8.364127 0.149885 3.154403 20.386414 -0.784378 2.153422 31.517632 -9.915784 2.397199 -2.525479 -0.865598 1.460499 -27.451126 -0.145147 0.921949 6e-06 -1e-06 1e-06 -0.102416 -0.028918 0.089572 -0.137171 0.027044 0.100965 -0.116042 -0.102182 0.084042 -79.745224 -63.304188 101.433159 14.168124 -38.018513 27.728619 85.676971 -0.452772 0.534808 14.24924 20.151739 2.495385 17.636616 -26.322725 52.41119 -19.466665 -14.395598 29.410389 -0.0 -8.774822 2e-06 15.192363 -18.023479 6.183189 -0.609775 -1.795653 -3.889328 -4.807088 -11.046811 -2.93785 4e-06 -20.976019 -1e-06 -5.019969 -25.033558 -4.03188 7e-06 1e-06 -1e-06 -10.634532 -5.686969 -3.565588 10.573276 -17.922951 -3.113903 3e-06 -13.821212 1e-06 -0.501775 -31.181511 -4.027017 -10.722878 -59.017372 7.339935 -13.982712 -7.150198 -2.87504 13.772727 -8.401492 -3.218244 0.347737 -34.211544 0.771654 -0.963026 -17.73337 2.621019 -0.0 -0.0 1e-06 -17.346413 -20.095215 -4.201782 21.757557 -1.638374 3.866426 2e-06 -6.338826 -0.0 -1.697592 -22.591747 -6.194004 0.0 -6e-06 -3e-06 157.541748 -76.465958 43.222729 39.438095 -32.165203 37.19408 78.17231 0.622457 0.418586 4.394188 18.921043 19.019587 22.182121 -20.375898 49.933327 -16.701815 -16.743528 28.476534 -3e-06 -12.690603 -1e-06 15.859833 -18.192446 3.289337 -0.105919 -1.513855 -4.275882 -5.039041 -5.612872 -2.953557 4e-06 -11.020527 -2e-06 -6.111297 -15.895334 -3.840472 0.0 0.0 0.0 -10.283369 -5.680287 -4.34184 11.028295 -11.302406 -2.372634 -1.384268 -14.238583 -6.320123 -0.625436 -26.924191 -3.827603 -4.913915 -50.064121 -3.227574 -13.708526 -7.363474 -3.72094 18.14115 -14.052742 -3.242676 9e-06 -18.787271 -3e-06 -0.429713 -8.456045 2.555502 1e-06 -0.0 1e-06 -15.923536 -20.094484 -5.473588 30.419218 -7.190827 1.735927 2e-06 -8.162926 -1e-06 -1.861902 -22.861471 -6.167944 1e-06 -5e-06 1e-06 155.8452 -6.700592 -12.197867 7.652846 0.180564 -0.239199 -70.454239 -0.440247 -15.229724 -10.457149 2.042346 1.731731 -0.999999 -1e-06 0.0 14.742115 2.734973 -13.823984 21.8957 0.019269 -0.014596 -89.265091 11.062396 -1.152125 -10.114993 0.692793 1.613467 -1.000002 -0.0 0.0 
0.0 0.0 0.0 0.0 -0.0 0.0 -11.360395 95.797173 266.498413 88.481041 5.240875 83.775124 10.269876 3.574347 1.488419 -8.394472 0.213604 3.500213 20.189745 -0.572623 2.440937 31.357399 -10.61367 2.382624 -2.582516 -0.897122 1.681105 -27.964647 -0.191588 1.204691 7e-06 -0.0 0.0 -0.101818 -0.024979 0.095255 -0.126487 0.028561 0.109747 -0.104006 -0.095935 0.085498 -80.463837 -62.889458 102.113983 12.65142 -37.847904 28.616943 85.557495 -0.513101 0.265473 14.656515 21.010098 2.99697 17.636625 -26.322729 52.411182 -19.466658 -14.3956 29.410381 0.0 -8.774822 1e-06 15.15708 -18.040754 6.273488 -0.609774 -1.795654 -3.889327 -4.807088 -11.046807 -2.93785 3e-06 -20.976015 3e-06 -5.01997 -25.033548 -4.031878 5e-06 2e-06 -2e-06 -10.634533 -5.68697 -3.565586 10.573274 -17.922945 -3.113903 2e-06 -13.821209 2e-06 -0.501773 -31.181505 -4.027017 -10.65482 -59.080856 7.348308 -13.982716 -7.150198 -2.875039 13.77273 -8.401489 -3.218241 0.347735 -34.211544 0.771657 -0.96303 -17.733366 2.621019 1e-06 -1e-06 1e-06 -17.346418 -20.095211 -4.201777 21.757555 -1.638376 3.866426 0.0 -6.338824 1e-06 -1.697593 -22.59174 -6.194006 -2e-06 -4e-06 -2e-06 160.21965 -76.383255 40.370766 39.68174 -32.493263 34.917439 78.720634 0.782329 0.471792 4.555591 20.062227 19.000902 22.182112 -20.375895 49.933319 -16.701809 -16.74353 28.47653 -4e-06 -12.690601 -1e-06 16.02582 -18.188482 3.195042 -0.105919 -1.513857 -4.275881 -5.039039 -5.612868 -2.953556 5e-06 -11.02052 -2e-06 -6.111298 -15.895329 -3.840471 -1e-06 -0.0 1e-06 -10.28337 -5.680288 -4.341838 11.028294 -11.302402 -2.372632 -1.384268 -14.238578 -6.320122 -0.625437 -26.924185 -3.8276 -4.891731 -50.050758 -3.208824 -13.708527 -7.363477 -3.720938 18.141151 -14.052735 -3.242674 6e-06 -18.787266 -1e-06 -0.429712 -8.456041 2.555505 -0.0 0.0 1e-06 -15.923538 -20.094482 -5.473583 30.41921 -7.190826 1.735925 3e-06 -8.162925 0.0 -1.861903 -22.861467 -6.167942 1e-06 -3e-06 0.0 155.194626 -6.955425 -12.371576 9.858125 0.151885 -0.238463 -69.903801 -0.833917 -14.930896 -10.373198 1.987292 1.766305 -0.999999 -0.0 1e-06 17.505045 2.251091 -13.643689 20.678976 -0.029276 0.077019 -87.909439 12.847977 -1.641294 -11.438682 0.723237 1.583597 -1.000002 0.0 -0.0 
0.0 0.0 0.0 0.0 -0.0 0.0 -10.856501 95.595589 270.139282 88.404671 4.486394 82.206993 9.911789 3.487485 1.526169 -8.477386 0.264212 3.857109 19.923151 -0.569298 2.648512 30.758934 -11.059303 2.344872 -2.637918 -0.879608 1.922354 -28.19747 -0.302982 1.621659 5e-06 -0.0 0.0 -0.097638 -0.017255 0.087285 -0.14564 0.035234 0.097315 -0.130456 -0.085971 0.080057 -81.849693 -62.773483 103.550156 11.041898 -37.639462 29.399628 84.804321 -0.467241 0.032399 15.014288 21.645622 2.570893 17.636635 -26.322737 52.411201 -19.466667 -14.395606 29.410393 1e-06 -8.774825 -0.0 15.114867 -18.062363 6.339878 -0.609775 -1.795653 -3.889325 -4.807091 -11.046813 -2.937853 6e-06 -20.976021 2e-06 -5.019972 -25.03356 -4.031884 6e-06 2e-06 2e-06 -10.634537 -5.68697 -3.565585 10.573278 -17.922953 -3.113903 3e-06 -13.821213 0.0 -0.501778 -31.181511 -4.027015 -10.563334 -59.054928 7.241349 -13.982719 -7.150198 -2.875038 13.772737 -8.401491 -3.218242 0.347734 -34.211559 0.771654 -0.963029 -17.733372 2.621021 1e-06 -0.0 -1e-06 -17.346422 -20.095215 -4.201778 21.757568 -1.638377 3.866429 1e-06 -6.338827 0.0 -1.69759 -22.591753 -6.194009 -0.0 -6e-06 -0.0 161.661987 -76.507652 38.547119 39.859966 -33.431602 32.017883 78.501862 0.684275 0.593884 5.089247 21.344202 19.055162 22.182119 -20.3759 49.933334 -16.701815 -16.743526 28.476534 -3e-06 -12.690603 -2e-06 16.207544 -18.151236 3.063746 -0.105921 -1.513857 -4.275882 -5.039041 -5.612873 -2.953557 4e-06 -11.020525 -2e-06 -6.111299 -15.895336 -3.840472 -0.0 -0.0 1e-06 -10.283373 -5.680291 -4.341841 11.028295 -11.302409 -2.372634 -1.38427 -14.238586 -6.320123 -0.625436 -26.924198 -3.827605 -4.90236 -50.042694 -3.114038 -13.708525 -7.363476 -3.720942 18.141146 -14.052741 -3.242674 7e-06 -18.78727 -3e-06 -0.429712 -8.456045 2.555504 2e-06 -0.0 0.0 -15.923536 -20.094492 -5.473588 30.419214 -7.190828 1.735926 4e-06 -8.162929 -2e-06 -1.861901 -22.861479 -6.167946 2e-06 -3e-06 -1e-06 154.606644 -6.764171 -11.937263 12.383471 0.099585 -0.180963 -68.619987 -1.215732 -13.241667 -10.286695 1.935609 1.839995 -0.999999 -0.0 0.0 20.08219 1.315807 -13.398986 18.695448 -0.04779 0.182755 -84.993027 14.596555 -2.045467 -13.638864 0.761576 1.549092 -1.000004 0.0 1e-06 
0.0 0.0 0.0 0.0 -0.0 0.0 -10.296347 95.624931 273.901276 89.047928 3.251727 80.939232 9.325102 2.951477 1.454206 -8.587347 0.272594 4.1745 19.748497 -0.832524 2.713757 29.628937 -11.220952 2.440192 -2.686724 -0.846214 2.116958 -28.074026 -0.469939 1.899684 6e-06 -0.0 0.0 -0.095204 0.000675 0.056276 -0.176707 0.044183 0.060258 -0.176042 -0.057324 0.053736 -84.366631 -62.893044 106.017807 9.684933 -37.294941 29.930876 83.301392 -0.289961 -0.052419 15.173105 22.040287 1.421284 17.636637 -26.322742 52.411201 -19.466656 -14.3956 29.410389 0.0 -8.774825 -1e-06 15.130252 -18.144499 6.400501 -0.609776 -1.795651 -3.88933 -4.80709 -11.046808 -2.93785 4e-06 -20.976019 3e-06 -5.01997 -25.033556 -4.031879 7e-06 1e-06 -1e-06 -10.634535 -5.686967 -3.565587 10.573279 -17.922953 -3.113897 4e-06 -13.82121 -0.0 -0.501779 -31.181505 -4.027014 -10.684418 -59.086124 7.309001 -13.982718 -7.150196 -2.875042 13.772736 -8.40149 -3.218243 0.347736 -34.211552 0.771659 -0.963029 -17.73337 2.62102 1e-06 -0.0 0.0 -17.346422 -20.095217 -4.201782 21.757565 -1.638375 3.866428 2e-06 -6.338825 1e-06 -1.69759 -22.591747 -6.194003 -1e-06 -7e-06 -2e-06 161.310272 -77.296204 38.481548 39.694698 -34.633038 29.035534 77.501526 0.60187 0.787305 6.153951 22.649689 19.308861 22.182123 -20.375904 49.933338 -16.701811 -16.743532 28.476534 -2e-06 -12.690603 -1e-06 16.17634 -18.117466 2.931589 -0.105922 -1.513853 -4.275881 -5.039041 -5.612872 -2.953556 2e-06 -11.020525 -1e-06 -6.1113 -15.895334 -3.84047 -2e-06 -0.0 0.0 -10.283376 -5.680291 -4.341839 11.028296 -11.302404 -2.372632 -1.38427 -14.238582 -6.320122 -0.62544 -26.924191 -3.8276 -4.952295 -49.911968 -3.041637 -13.70853 -7.363476 -3.720941 18.141153 -14.052741 -3.242672 7e-06 -18.787271 -1e-06 -0.429711 -8.456045 2.555504 2e-06 -0.0 -0.0 -15.923543 -20.094486 -5.473586 30.419224 -7.190828 1.735929 0.0 -8.162927 1e-06 -1.861905 -22.861475 -6.167942 -1e-06 -4e-06 0.0 153.836533 -5.812831 -11.000645 14.865521 0.065466 -0.151625 -64.658981 -2.012291 -9.510537 -9.997429 1.824733 1.974065 -0.999997 -0.0 0.0 22.517132 -0.162671 -13.266266 15.781104 -0.056206 0.300596 -80.179108 16.251179 -2.296595 -16.79364 0.823015 1.515545 -1.000001 -0.0 1e-06 
